<svg xmlns="http://www.w3.org/2000/svg" viewBox="0 0 265 60">
  <path d="M30.95 49.20L23.05 49.20L29.72 17.92L20 17.92L21.68 10L49.01 10L47.33 17.92L37.61 17.92L30.95 49.20ZM33.44 14.73L26.75 46.23L28.48 46.23L35.15 14.73L45.03 14.73L45.40 13.02L23.98 13.02L23.61 14.73L33.44 14.73ZM54.19 49.20L46.26 49.20L54.61 10L78.77 10L83.31 15.77L80.73 27.92L76.64 31.06L79.28 34.78L76.20 49.20L68.27 49.20L70.74 37.58L68.55 34.78L57.27 34.78L54.19 49.20ZM57.07 13.05L50.04 46.18L51.75 46.18L54.86 31.50L70.54 31.50L74.18 36.52L72.11 46.18L73.84 46.18L76 35.98L72.28 30.69L77.76 26.72L79.78 17.28L76.42 13.05L57.07 13.05ZM60.85 17.92L58.95 26.86L71.32 26.86L73.40 25.12L74.57 19.63L73.23 17.92L60.85 17.92ZM71.10 29.77L55.22 29.77L58.42 14.76L75.30 14.76L77.90 18.01L76.17 26.16L71.10 29.77ZM90.53 49.20L82.64 49.20L89.75 15.77L96.75 10L114.84 10L119.37 15.77L112.26 49.20L104.36 49.20L106.83 37.66L93.00 37.66L90.53 49.20ZM92.66 17.14L86.58 45.84L88.29 45.84L90.64 34.64L110.55 34.64L108.17 45.84L109.91 45.84L116.01 17.14L112.62 12.91L97.81 12.91L92.66 17.14ZM96.83 19.63L94.68 29.77L108.51 29.77L110.66 19.63L109.32 17.92L98.90 17.92L96.83 19.63ZM110.92 32.93L91.04 32.93L94.23 17.87L98.23 14.62L111.53 14.62L114.11 17.87L110.92 32.93ZM126.62 49.20L118.70 49.20L127.04 10L151.96 10L150.28 17.92L133.29 17.92L131.66 25.46L147.60 25.46L145.92 33.38L129.98 33.38L126.62 49.20ZM129.48 13.02L122.42 46.23L124.16 46.23L127.55 30.19L143.51 30.19L143.87 28.48L127.91 28.48L130.82 14.73L147.90 14.73L148.27 13.02L129.48 13.02ZM156.86 49.20L148.94 49.20L157.28 10L182.20 10L180.52 17.92L163.53 17.92L161.90 25.46L177.84 25.46L176.16 33.38L160.22 33.38L156.86 49.20ZM159.72 13.02L152.66 46.23L154.40 46.23L157.79 30.19L173.75 30.19L174.11 28.48L158.15 28.48L161.06 14.73L178.14 14.73L178.51 13.02L159.72 13.02ZM202.39 49.20L179.18 49.20L180.86 41.28L188.53 41.28L193.52 17.92L185.84 17.92L187.52 10L210.74 10L209.06 17.92L201.41 17.92L196.43 41.28L204.07 41.28L202.39 49.20ZM183.27 44.41L182.90 46.12L200.01 46.12L200.38 44.41L192.45 44.41L198.75 14.73L206.68 14.73L207.04 13.02L189.93 13.02L189.57 14.73L197.02 14.73L190.74 44.41L183.27 44.41ZM231.71 49.20L214.32 49.20L209.78 43.43L215.66 15.77L222.66 10L240.05 10L244.62 15.77L242.71 24.78L234.79 24.78L235.88 19.63L234.54 17.92L224.85 17.92L222.78 19.63L218.52 39.57L219.86 41.28L229.55 41.28L231.62 39.57L232.72 34.42L240.64 34.42L238.74 43.43L231.71 49.20ZM213.20 41.84L216.53 46.09L230.81 46.09L235.99 41.84L237 37.16L235.26 37.16L234.42 41.11L230.42 44.36L217.68 44.36L215.08 41.11L219.98 17.98L223.95 14.73L236.72 14.73L239.32 17.98L238.48 21.96L240.22 21.96L241.23 17.25L237.84 13.02L223.56 13.02L218.41 17.25L213.20 41.84Z" fill="#0C0C0C"/>
</svg>